# xmcd
#
# Track frame offsets:
#	210
#	9221
#	25758
#	40698
#	57599
#	71000
#	85025
#	106165
#	120243
#	139646
#	159434
#	176479
#	191760
#	210105
#	226042
#	241357
#	253417
#	272632
#	293231
#	301836
#	326625
#
# Disc length: 4497 seconds
#
# Revision: 1
# Processed by: cddbd v1.5.2PL0 Copyright (c) Steve Scherf et al.
# Submitted via: EasyCDDAExtractor 10.0.3.1
#
DISCID=10118f15
DTITLE=Various Artist - Przychodzimy, odchodzimy
DYEAR=2000
DGENRE=Ballad
TTITLE0=Piwnica pod Baranami - Przychodzimy, odchodzimy
TTITLE1=EWA SADOWSKA and MIKI OBﾅ＾ﾅゴKI - Niebieska patelnia
TTITLE2=LESZEK DﾅゞGOSZ - Jaka szkoda
TTITLE3=HALINA WYRODEK - Ta nasza mlodosc
TTITLE4=TAMARA KALINOWSKA - Walc
TTITLE5=ANNA SZAﾅ、PAK - Zaklinanie, czarowanie
TTITLE6=GRZEGORZ TURNAU - Plac na Groblach
TTITLE7=JACEK Wﾃ笛CICKI - Konie Apokalipsy
TTITLE8=BEATA RYBOTYCKA and GRZEGORZ TURNAU - Czas
TTITLE9=AGNIESZKA CHRZANOWSKA - Nie boj sie nic nie robic
TTITLE10=Piwnica pod Baranami - Spanioletta
TTITLE11=LESZEK Wﾃ笛TOWICZ - Moja litania
TTITLE12=ZBIGNIEW RAJ - Do przyjaciol gowniarzy (Kielce)
TTITLE13=DOROTA ﾅ哭ﾄ六AK - Musze cos zrobic...
TTITLE14=SZYMON ZYCHOWICZ - Pozytywka
TTITLE15=MIECZYSﾅ、W ﾅ啗Iﾄ呂ICKI - Jeczmienny lan
TTITLE16=OLA MAURER - Szewczyk
TTITLE17=Piwnica pod Baranami - Dezyderata
TTITLE18=PIOTR SKRZYNECKI - Wyprzedaz teatru
TTITLE19=GRZEGORZ TURNAU, JAN NOWICKI, JAN KANTY PAWLUﾅ哮IEWICZ, ELﾅｻBIETA TOWAR
TTITLE19=NICKA - Konwalie, bzy albo pet
TTITLE20=Piwnica pod Baranami - Przychodzimy, odchodzimy
EXTD=Compilation of songs - "Piwnica pod Baranami". Gold Edition by Pomation E
EXTD=MI 2000, Poland\n
EXTT0=
EXTT1=
EXTT2=
EXTT3=
EXTT4=
EXTT5=
EXTT6=
EXTT7=
EXTT8=
EXTT9=
EXTT10=
EXTT11=
EXTT12=
EXTT13=
EXTT14=
EXTT15=
EXTT16=
EXTT17=
EXTT18=
EXTT19=
EXTT20=
PLAYORDER=
